<svg width="258" height="258" viewBox="0 0 258 258" fill="none" xmlns="http://www.w3.org/2000/svg">
<g filter="url(#filter0_di)">
<path d="M254 125C254 194.036 198.036 250 129 250C59.9644 250 4 194.036 4 125C4 55.9644 59.9644 0 129 0C198.036 0 254 55.9644 254 125Z" fill="#006980"/>
<path d="M252.5 125C252.5 193.207 197.207 248.5 129 248.5C60.7928 248.5 5.5 193.207 5.5 125C5.5 56.7928 60.7928 1.5 129 1.5C197.207 1.5 252.5 56.7928 252.5 125Z" stroke="white" stroke-width="3"/>
</g>
<path d="M169 143.996V115H152V143.996V144H169V143.996Z" fill="#F2F3F4"/>
<path d="M196.585 54H128.224H125.895H57.5334C55.0985 54 53 56.234 53 59.1706V160.806V161.159V170.576V171.164C53 174.1 55.0985 176.569 57.5334 176.569H112.287C112.223 178.253 111.787 185.505 108.929 189.013C106.678 191.784 103.55 194.375 104.771 195.707C105.067 196.528 106.471 197 109.663 197C116.706 197 124.332 197 127.124 197C127.83 197 128.227 197 128.227 197C131.017 197 138.646 197 145.686 197C149.322 197 150.592 196.28 150.604 195.211H150.48V194.856H150.352C150.19 193.409 147.764 191.275 145.927 189.022C143.07 185.515 142.637 178.266 142.573 176.582H196.591C199.026 176.582 201 174.114 201 171.173V170.585V161.168V160.815V59.1725C200.997 56.2321 199.02 54 196.585 54ZM126.998 171.421C125.407 171.421 124.12 169.873 124.12 167.953C124.12 166.036 125.407 164.484 126.998 164.484C128.587 164.484 129.875 166.036 129.875 167.953C129.875 169.871 128.585 171.421 126.998 171.421ZM194.756 153.281H145.013H59.2409V61.1697H145.013H194.756V153.281Z" fill="#F2F3F4"/>
<path d="M190 72H152V80H190V72Z" fill="#F2F3F4"/>
<path d="M169 85H152V113H169V85Z" fill="#F2F3F4"/>
<path d="M60 61V153H145V61H60ZM114.48 107.166V109.91H77.8747V107.166H114.48ZM101.243 105.389H77.8747V102.645H101.243V105.389ZM69.8529 70.1991H76.2892V72.9426H69.8529V70.1991ZM69.8529 74.8211H85.8951V77.5647H69.8529V74.8211ZM69.8529 79.4413H91.243V82.1849H69.8529V79.4413ZM69.8529 84.0615H85.8951V86.805H69.8529V84.0615ZM69.8529 88.6835H85.8951V91.4271H69.8529V88.6835ZM69.8529 93.3037H76.2892V96.0473H69.8529V93.3037ZM69.8529 97.9257H80.6135V100.669H69.8529V97.9257ZM69.8529 102.645H76.2892V105.389H69.8529V102.645ZM69.8529 107.166H76.2892V109.91H69.8529V107.166ZM69.8529 111.788H76.2892V114.532H69.8529V111.788ZM69.8529 116.408H121.13V119.152H69.8529V116.408ZM69.8529 121.03H76.2892V123.774H69.8529V121.03ZM68.3106 142.258H66.3591V139.513H68.3106V142.258ZM68.3106 137.636H66.3591V134.893H68.3106V137.636ZM68.3106 133.016H66.3591V130.273H68.3106V133.016ZM68.3106 128.396H66.3591V125.651H68.3106V128.396ZM68.3106 123.774H66.3591V121.03H68.3106V123.774ZM68.3106 119.152H66.3591V116.408H68.3106V119.152ZM68.3106 114.532H66.3591V111.788H68.3106V114.532ZM68.3106 109.91H66.3591V107.166H68.3106V109.91ZM68.3106 105.289H66.3591V102.546H68.3106V105.289ZM68.3106 100.669H66.3591V97.9257H68.3106V100.669ZM68.3106 96.0473H66.3591V93.3037H68.3106V96.0473ZM68.3106 91.4271H66.3591V88.6835H68.3106V91.4271ZM68.3106 86.805H66.3591V84.0615H68.3106V86.805ZM68.3106 82.1849H66.3591V79.4413H68.3106V82.1849ZM68.3106 77.5647H66.3591V74.8211H68.3106V77.5647ZM68.3106 72.9426H66.3591V70.1991H68.3106V72.9426ZM80.6135 142.258H69.8529V139.513H80.6135V142.258ZM83.0142 137.636H69.8529V134.893H83.0142V137.636ZM96.1771 133.016H69.8529V130.273H96.1771V133.016ZM101.241 128.396H69.8529V125.651H101.241V128.396ZM121.132 123.774H77.8747V121.03H121.132V123.774ZM129.097 114.532H77.8747V111.788H129.097V114.532ZM137.075 114.532H130.638V111.788H137.075V114.532Z" fill="white"/>
<path d="M171 143.996V144H190V143.996V115H171V143.996Z" fill="white"/>
<path d="M190 85H171V113H190V85Z" fill="#EEEEEE"/>
<defs>
<filter id="filter0_di" x="0" y="0" width="258" height="258" filterUnits="userSpaceOnUse" color-interpolation-filters="sRGB">
<feFlood flood-opacity="0" result="BackgroundImageFix"/>
<feColorMatrix in="SourceAlpha" type="matrix" values="0 0 0 0 0 0 0 0 0 0 0 0 0 0 0 0 0 0 127 0"/>
<feOffset dy="4"/>
<feGaussianBlur stdDeviation="2"/>
<feColorMatrix type="matrix" values="0 0 0 0 0 0 0 0 0 0 0 0 0 0 0 0 0 0 0.25 0"/>
<feBlend mode="normal" in2="BackgroundImageFix" result="effect1_dropShadow"/>
<feBlend mode="normal" in="SourceGraphic" in2="effect1_dropShadow" result="shape"/>
<feColorMatrix in="SourceAlpha" type="matrix" values="0 0 0 0 0 0 0 0 0 0 0 0 0 0 0 0 0 0 127 0" result="hardAlpha"/>
<feOffset dx="4" dy="4"/>
<feGaussianBlur stdDeviation="30"/>
<feComposite in2="hardAlpha" operator="arithmetic" k2="-1" k3="1"/>
<feColorMatrix type="matrix" values="0 0 0 0 1 0 0 0 0 1 0 0 0 0 1 0 0 0 1 0"/>
<feBlend mode="normal" in2="shape" result="effect2_innerShadow"/>
</filter>
</defs>
</svg>
