<svg width="744" height="258" viewBox="0 0 744 258" fill="none" xmlns="http://www.w3.org/2000/svg">
<g filter="url(#filter0_d)">
<mask id="path-1-outside-1" maskUnits="userSpaceOnUse" x="323" y="166" width="293" height="33" fill="black">
<rect fill="white" x="323" y="166" width="293" height="33"/>
<path d="M348.23 168.208L346.91 176.705C346.454 176.597 345.998 176.523 345.543 176.483C345.087 176.443 344.631 176.423 344.176 176.423C343.013 176.423 341.905 176.557 340.852 176.826C339.799 177.081 338.865 177.477 338.047 178.013C337.246 178.55 336.602 179.221 336.115 180.027C335.643 180.832 335.408 181.779 335.408 182.866C335.408 183.564 335.533 184.168 335.785 184.678C336.052 185.188 336.421 185.611 336.893 185.946C337.364 186.282 337.922 186.53 338.566 186.691C339.21 186.852 339.917 186.933 340.687 186.933C341.269 186.933 341.874 186.879 342.502 186.772C343.131 186.664 343.751 186.523 344.364 186.349C344.977 186.174 345.574 185.973 346.155 185.745C346.737 185.517 347.271 185.282 347.758 185.04L346.815 194.503C346.203 194.772 345.535 195.013 344.812 195.228C344.105 195.43 343.374 195.611 342.62 195.772C341.866 195.919 341.112 196.034 340.357 196.114C339.603 196.195 338.88 196.235 338.189 196.235C336.193 196.235 334.331 195.919 332.603 195.289C330.874 194.658 329.374 193.792 328.101 192.691C326.828 191.591 325.823 190.295 325.084 188.805C324.361 187.302 324 185.685 324 183.953C324 181.658 324.385 179.497 325.155 177.47C325.925 175.43 327.056 173.644 328.549 172.114C330.042 170.584 331.888 169.376 334.088 168.49C336.303 167.604 338.849 167.161 341.724 167.161C342.809 167.161 343.916 167.235 345.048 167.383C346.195 167.53 347.255 167.805 348.23 168.208Z"/>
<path d="M378.469 181.094C378.469 182.315 378.304 183.497 377.974 184.638C377.644 185.765 377.165 186.826 376.537 187.819C375.924 188.812 375.17 189.725 374.274 190.557C373.394 191.376 372.396 192.081 371.281 192.671C370.181 193.262 368.979 193.725 367.674 194.06C366.37 194.383 364.987 194.544 363.526 194.544C362.112 194.544 360.761 194.389 359.472 194.081C358.199 193.772 357.005 193.342 355.89 192.792C354.774 192.228 353.761 191.557 352.849 190.779C351.954 189.987 351.184 189.114 350.539 188.161C349.911 187.195 349.416 186.161 349.054 185.06C348.709 183.96 348.536 182.812 348.536 181.617C348.536 180.45 348.701 179.309 349.031 178.195C349.361 177.067 349.832 176.007 350.445 175.013C351.074 174.02 351.828 173.107 352.708 172.275C353.588 171.443 354.57 170.725 355.654 170.121C356.754 169.517 357.94 169.047 359.213 168.711C360.486 168.376 361.829 168.208 363.243 168.208C365.522 168.208 367.596 168.51 369.466 169.114C371.351 169.718 372.954 170.584 374.274 171.711C375.61 172.826 376.639 174.181 377.362 175.779C378.1 177.362 378.469 179.134 378.469 181.094ZM368.004 181.617C368.004 181.04 367.902 180.483 367.698 179.946C367.509 179.396 367.227 178.913 366.849 178.497C366.472 178.067 366.001 177.725 365.435 177.47C364.885 177.201 364.249 177.067 363.526 177.067C362.788 177.067 362.128 177.181 361.546 177.409C360.965 177.638 360.462 177.953 360.038 178.356C359.629 178.745 359.315 179.208 359.095 179.745C358.875 180.268 358.765 180.826 358.765 181.416C358.765 181.98 358.859 182.544 359.048 183.107C359.237 183.671 359.519 184.181 359.896 184.638C360.274 185.094 360.737 185.463 361.287 185.745C361.853 186.027 362.505 186.168 363.243 186.168C363.982 186.168 364.642 186.047 365.223 185.805C365.82 185.55 366.323 185.215 366.732 184.799C367.14 184.369 367.454 183.879 367.674 183.329C367.894 182.779 368.004 182.208 368.004 181.617Z"/>
<path d="M409.086 186.329C409.086 187.846 409.063 189.349 409.015 190.839C408.984 192.315 408.929 193.805 408.85 195.309L395.274 195.107C395.746 192.732 396.154 190.362 396.5 188C396.846 185.624 397.019 183.228 397.019 180.812C397.019 180.638 397.011 180.356 396.995 179.966C396.979 179.577 396.948 179.141 396.901 178.658C396.854 178.161 396.783 177.658 396.689 177.148C396.61 176.624 396.492 176.148 396.335 175.718C396.194 175.289 396.013 174.94 395.793 174.671C395.589 174.389 395.337 174.248 395.039 174.248C394.504 174.248 394.049 174.383 393.672 174.651C393.31 174.919 393.004 175.268 392.752 175.698C392.517 176.114 392.328 176.584 392.187 177.107C392.045 177.631 391.935 178.154 391.857 178.678C391.794 179.201 391.747 179.698 391.715 180.168C391.7 180.624 391.692 181 391.692 181.295C391.613 183.671 391.55 186.034 391.503 188.383C391.456 190.718 391.393 193.081 391.315 195.47L379.294 195.913C379.608 191.174 379.907 186.463 380.19 181.779C380.488 177.094 380.724 172.383 380.897 167.644L392.022 167.161L391.928 170.383C392.367 169.926 392.839 169.497 393.342 169.094C393.86 168.691 394.41 168.349 394.992 168.067C395.573 167.772 396.186 167.544 396.83 167.383C397.49 167.208 398.181 167.121 398.904 167.121C400.24 167.121 401.41 167.309 402.416 167.685C403.422 168.06 404.286 168.57 405.009 169.215C405.731 169.859 406.336 170.624 406.823 171.51C407.311 172.383 407.703 173.315 408.002 174.309C408.3 175.302 408.528 176.342 408.685 177.43C408.843 178.503 408.945 179.564 408.992 180.611C409.055 181.658 409.086 182.671 409.086 183.651C409.086 184.631 409.086 185.523 409.086 186.329Z"/>
<path d="M435.484 186.208C435.484 188.047 435.107 189.638 434.353 190.98C433.614 192.309 432.593 193.409 431.289 194.282C430 195.141 428.484 195.779 426.74 196.195C425.011 196.597 423.149 196.799 421.154 196.799C420.384 196.799 419.535 196.711 418.608 196.537C417.697 196.362 416.77 196.148 415.827 195.893C414.884 195.624 413.973 195.342 413.093 195.047C412.229 194.738 411.459 194.45 410.783 194.181L411.82 186.289C413.156 186.973 414.633 187.497 416.251 187.859C417.885 188.208 419.488 188.383 421.059 188.383C421.358 188.383 421.719 188.376 422.144 188.362C422.568 188.336 422.969 188.275 423.346 188.181C423.739 188.074 424.069 187.919 424.336 187.718C424.603 187.517 424.736 187.228 424.736 186.852C424.736 186.597 424.642 186.383 424.454 186.208C424.265 186.02 424.021 185.872 423.723 185.765C423.424 185.644 423.086 185.557 422.709 185.503C422.332 185.436 421.963 185.389 421.602 185.362C421.24 185.336 420.902 185.322 420.588 185.322C420.274 185.322 420.022 185.322 419.834 185.322C418.483 185.322 417.249 185.141 416.133 184.779C415.034 184.416 414.083 183.906 413.282 183.248C412.496 182.577 411.883 181.772 411.443 180.832C411.003 179.879 410.783 178.826 410.783 177.671C410.783 176.087 411.152 174.671 411.891 173.423C412.645 172.161 413.643 171.094 414.884 170.221C416.141 169.336 417.579 168.658 419.197 168.188C420.816 167.718 422.489 167.483 424.218 167.483C424.988 167.483 425.781 167.51 426.598 167.564C427.415 167.604 428.225 167.685 429.026 167.805C429.843 167.926 430.637 168.081 431.407 168.268C432.176 168.456 432.907 168.691 433.599 168.973L432.703 177.148C431.634 176.839 430.511 176.584 429.332 176.383C428.17 176.168 427.03 176.06 425.915 176.06C425.711 176.06 425.443 176.067 425.113 176.081C424.799 176.081 424.461 176.101 424.1 176.141C423.754 176.168 423.401 176.215 423.039 176.282C422.678 176.349 422.356 176.443 422.073 176.564C421.79 176.671 421.562 176.819 421.389 177.007C421.217 177.195 421.138 177.416 421.154 177.671C421.169 177.966 421.295 178.195 421.531 178.356C421.782 178.517 422.097 178.638 422.474 178.718C422.867 178.785 423.291 178.819 423.746 178.819C424.218 178.819 424.681 178.812 425.137 178.799C425.593 178.772 426.017 178.752 426.41 178.738C426.803 178.711 427.125 178.705 427.376 178.718C428.633 178.785 429.765 179.013 430.77 179.403C431.776 179.792 432.624 180.309 433.316 180.953C434.023 181.597 434.557 182.369 434.918 183.268C435.296 184.154 435.484 185.134 435.484 186.208Z"/>
<path d="M465.111 168.168C464.404 172.893 463.799 177.597 463.296 182.282C462.793 186.953 462.314 191.658 461.858 196.396L452.195 197L452.619 193.899C452.305 194.208 451.936 194.477 451.511 194.705C451.103 194.933 450.663 195.121 450.191 195.268C449.72 195.403 449.233 195.503 448.73 195.57C448.227 195.624 447.748 195.644 447.292 195.631C446.224 195.617 445.218 195.443 444.276 195.107C443.333 194.758 442.469 194.302 441.683 193.738C440.897 193.161 440.19 192.497 439.562 191.745C438.933 190.98 438.399 190.181 437.959 189.349C437.535 188.503 437.205 187.644 436.969 186.772C436.749 185.899 436.639 185.054 436.639 184.235C436.639 183.027 436.663 181.779 436.71 180.49C436.773 179.188 436.875 177.886 437.016 176.584C437.158 175.282 437.338 173.993 437.558 172.718C437.794 171.443 438.085 170.221 438.43 169.054C440.347 169.134 442.272 169.208 444.205 169.275C446.138 169.342 448.062 169.362 449.979 169.336C449.618 170.503 449.257 171.678 448.895 172.859C448.549 174.027 448.235 175.208 447.952 176.403C447.67 177.584 447.442 178.772 447.269 179.966C447.096 181.161 447.01 182.369 447.01 183.591C447.01 183.872 447.025 184.275 447.057 184.799C447.088 185.322 447.167 185.839 447.292 186.349C447.434 186.859 447.638 187.309 447.905 187.698C448.188 188.074 448.581 188.262 449.084 188.262C449.681 188.262 450.215 188.047 450.686 187.617C451.158 187.174 451.574 186.584 451.936 185.846C452.297 185.107 452.603 184.255 452.855 183.289C453.122 182.322 453.342 181.315 453.515 180.268C453.703 179.208 453.853 178.141 453.963 177.067C454.073 175.993 454.151 174.987 454.198 174.047C454.261 173.094 454.3 172.242 454.316 171.49C454.348 170.738 454.363 170.154 454.363 169.738C454.363 169.47 454.355 169.208 454.34 168.953C454.324 168.698 454.3 168.436 454.269 168.168C455.29 168.195 456.304 168.215 457.309 168.228C458.315 168.242 459.329 168.248 460.35 168.248C461.136 168.248 461.921 168.248 462.707 168.248C463.508 168.235 464.31 168.208 465.111 168.168Z"/>
<path d="M487.196 185.846L486.206 194.785L466.36 196.114L467.114 167.362H479.371L477.626 185.846H487.196Z"/>
<path d="M509.493 168.128L509.257 176.664L502.233 176.906L501.385 195.591L491.438 196.034L490.543 177.349L483.519 177.671L483.802 168.168L509.493 168.128Z"/>
<path d="M539.497 181.094C539.497 182.315 539.332 183.497 539.002 184.638C538.672 185.765 538.192 186.826 537.564 187.819C536.951 188.812 536.197 189.725 535.301 190.557C534.421 191.376 533.424 192.081 532.308 192.671C531.208 193.262 530.006 193.725 528.702 194.06C527.398 194.383 526.015 194.544 524.553 194.544C523.139 194.544 521.788 194.389 520.5 194.081C519.227 193.772 518.033 193.342 516.917 192.792C515.801 192.228 514.788 191.557 513.876 190.779C512.981 189.987 512.211 189.114 511.567 188.161C510.938 187.195 510.443 186.161 510.082 185.06C509.736 183.96 509.563 182.812 509.563 181.617C509.563 180.45 509.728 179.309 510.058 178.195C510.388 177.067 510.86 176.007 511.472 175.013C512.101 174.02 512.855 173.107 513.735 172.275C514.615 171.443 515.597 170.725 516.681 170.121C517.781 169.517 518.967 169.047 520.24 168.711C521.513 168.376 522.856 168.208 524.271 168.208C526.549 168.208 528.623 168.51 530.493 169.114C532.379 169.718 533.981 170.584 535.301 171.711C536.637 172.826 537.666 174.181 538.389 175.779C539.127 177.362 539.497 179.134 539.497 181.094ZM529.032 181.617C529.032 181.04 528.93 180.483 528.725 179.946C528.537 179.396 528.254 178.913 527.877 178.497C527.5 178.067 527.028 177.725 526.463 177.47C525.913 177.201 525.276 177.067 524.553 177.067C523.815 177.067 523.155 177.181 522.574 177.409C521.992 177.638 521.489 177.953 521.065 178.356C520.657 178.745 520.342 179.208 520.122 179.745C519.902 180.268 519.792 180.826 519.792 181.416C519.792 181.98 519.887 182.544 520.075 183.107C520.264 183.671 520.547 184.181 520.924 184.638C521.301 185.094 521.764 185.463 522.314 185.745C522.88 186.027 523.532 186.168 524.271 186.168C525.009 186.168 525.669 186.047 526.25 185.805C526.848 185.55 527.35 185.215 527.759 184.799C528.167 184.369 528.482 183.879 528.702 183.329C528.922 182.779 529.032 182.208 529.032 181.617Z"/>
<path d="M568.77 177.107C568.77 178.154 568.66 179.107 568.44 179.966C568.236 180.812 567.906 181.591 567.45 182.302C566.994 183.013 566.405 183.671 565.682 184.275C564.96 184.879 564.088 185.456 563.066 186.007L568.676 194.544L558.069 196.315L554.44 187.738L551.517 187.819L551.093 196.195H540.958C541.036 193.134 541.107 190.087 541.17 187.054C541.249 184.02 541.335 180.973 541.429 177.913C541.461 176.369 541.492 174.839 541.524 173.322C541.555 171.805 541.618 170.275 541.712 168.732C542.812 168.383 543.896 168.094 544.965 167.866C546.033 167.638 547.102 167.463 548.17 167.342C549.254 167.208 550.346 167.121 551.446 167.081C552.562 167.027 553.701 167 554.864 167C556.655 167 558.384 167.215 560.049 167.644C561.731 168.06 563.215 168.691 564.504 169.537C565.792 170.383 566.822 171.436 567.592 172.698C568.377 173.96 568.77 175.43 568.77 177.107ZM558.211 177.752C558.211 177.188 558.117 176.671 557.928 176.201C557.755 175.732 557.488 175.329 557.127 174.993C556.781 174.644 556.341 174.376 555.807 174.188C555.288 173.987 554.675 173.886 553.968 173.886C553.654 173.886 553.348 173.906 553.049 173.946C552.751 173.973 552.46 174.02 552.177 174.087L551.8 181.577H552.366C553.041 181.577 553.725 181.503 554.416 181.356C555.123 181.208 555.752 180.98 556.302 180.671C556.867 180.362 557.323 179.966 557.669 179.483C558.03 179 558.211 178.423 558.211 177.752Z"/>
<path d="M582.723 168.168L581.073 195.591L571.127 196.034L570.184 168.732L582.723 168.168Z"/>
<path d="M614 194.785L602.31 196.074L600.895 191.523H595.521L594.343 196.074L582.323 195.067L591.703 168.248L604.808 167.685L614 194.785ZM600.047 185.362L598.256 178.356L596.511 185.362H600.047Z"/>
</mask>
<path d="M348.23 168.208L346.91 176.705C346.454 176.597 345.998 176.523 345.543 176.483C345.087 176.443 344.631 176.423 344.176 176.423C343.013 176.423 341.905 176.557 340.852 176.826C339.799 177.081 338.865 177.477 338.047 178.013C337.246 178.55 336.602 179.221 336.115 180.027C335.643 180.832 335.408 181.779 335.408 182.866C335.408 183.564 335.533 184.168 335.785 184.678C336.052 185.188 336.421 185.611 336.893 185.946C337.364 186.282 337.922 186.53 338.566 186.691C339.21 186.852 339.917 186.933 340.687 186.933C341.269 186.933 341.874 186.879 342.502 186.772C343.131 186.664 343.751 186.523 344.364 186.349C344.977 186.174 345.574 185.973 346.155 185.745C346.737 185.517 347.271 185.282 347.758 185.04L346.815 194.503C346.203 194.772 345.535 195.013 344.812 195.228C344.105 195.43 343.374 195.611 342.62 195.772C341.866 195.919 341.112 196.034 340.357 196.114C339.603 196.195 338.88 196.235 338.189 196.235C336.193 196.235 334.331 195.919 332.603 195.289C330.874 194.658 329.374 193.792 328.101 192.691C326.828 191.591 325.823 190.295 325.084 188.805C324.361 187.302 324 185.685 324 183.953C324 181.658 324.385 179.497 325.155 177.47C325.925 175.43 327.056 173.644 328.549 172.114C330.042 170.584 331.888 169.376 334.088 168.49C336.303 167.604 338.849 167.161 341.724 167.161C342.809 167.161 343.916 167.235 345.048 167.383C346.195 167.53 347.255 167.805 348.23 168.208Z" fill="#006980"/>
<path d="M378.469 181.094C378.469 182.315 378.304 183.497 377.974 184.638C377.644 185.765 377.165 186.826 376.537 187.819C375.924 188.812 375.17 189.725 374.274 190.557C373.394 191.376 372.396 192.081 371.281 192.671C370.181 193.262 368.979 193.725 367.674 194.06C366.37 194.383 364.987 194.544 363.526 194.544C362.112 194.544 360.761 194.389 359.472 194.081C358.199 193.772 357.005 193.342 355.89 192.792C354.774 192.228 353.761 191.557 352.849 190.779C351.954 189.987 351.184 189.114 350.539 188.161C349.911 187.195 349.416 186.161 349.054 185.06C348.709 183.96 348.536 182.812 348.536 181.617C348.536 180.45 348.701 179.309 349.031 178.195C349.361 177.067 349.832 176.007 350.445 175.013C351.074 174.02 351.828 173.107 352.708 172.275C353.588 171.443 354.57 170.725 355.654 170.121C356.754 169.517 357.94 169.047 359.213 168.711C360.486 168.376 361.829 168.208 363.243 168.208C365.522 168.208 367.596 168.51 369.466 169.114C371.351 169.718 372.954 170.584 374.274 171.711C375.61 172.826 376.639 174.181 377.362 175.779C378.1 177.362 378.469 179.134 378.469 181.094ZM368.004 181.617C368.004 181.04 367.902 180.483 367.698 179.946C367.509 179.396 367.227 178.913 366.849 178.497C366.472 178.067 366.001 177.725 365.435 177.47C364.885 177.201 364.249 177.067 363.526 177.067C362.788 177.067 362.128 177.181 361.546 177.409C360.965 177.638 360.462 177.953 360.038 178.356C359.629 178.745 359.315 179.208 359.095 179.745C358.875 180.268 358.765 180.826 358.765 181.416C358.765 181.98 358.859 182.544 359.048 183.107C359.237 183.671 359.519 184.181 359.896 184.638C360.274 185.094 360.737 185.463 361.287 185.745C361.853 186.027 362.505 186.168 363.243 186.168C363.982 186.168 364.642 186.047 365.223 185.805C365.82 185.55 366.323 185.215 366.732 184.799C367.14 184.369 367.454 183.879 367.674 183.329C367.894 182.779 368.004 182.208 368.004 181.617Z" fill="#006980"/>
<path d="M409.086 186.329C409.086 187.846 409.063 189.349 409.015 190.839C408.984 192.315 408.929 193.805 408.85 195.309L395.274 195.107C395.746 192.732 396.154 190.362 396.5 188C396.846 185.624 397.019 183.228 397.019 180.812C397.019 180.638 397.011 180.356 396.995 179.966C396.979 179.577 396.948 179.141 396.901 178.658C396.854 178.161 396.783 177.658 396.689 177.148C396.61 176.624 396.492 176.148 396.335 175.718C396.194 175.289 396.013 174.94 395.793 174.671C395.589 174.389 395.337 174.248 395.039 174.248C394.504 174.248 394.049 174.383 393.672 174.651C393.31 174.919 393.004 175.268 392.752 175.698C392.517 176.114 392.328 176.584 392.187 177.107C392.045 177.631 391.935 178.154 391.857 178.678C391.794 179.201 391.747 179.698 391.715 180.168C391.7 180.624 391.692 181 391.692 181.295C391.613 183.671 391.55 186.034 391.503 188.383C391.456 190.718 391.393 193.081 391.315 195.47L379.294 195.913C379.608 191.174 379.907 186.463 380.19 181.779C380.488 177.094 380.724 172.383 380.897 167.644L392.022 167.161L391.928 170.383C392.367 169.926 392.839 169.497 393.342 169.094C393.86 168.691 394.41 168.349 394.992 168.067C395.573 167.772 396.186 167.544 396.83 167.383C397.49 167.208 398.181 167.121 398.904 167.121C400.24 167.121 401.41 167.309 402.416 167.685C403.422 168.06 404.286 168.57 405.009 169.215C405.731 169.859 406.336 170.624 406.823 171.51C407.311 172.383 407.703 173.315 408.002 174.309C408.3 175.302 408.528 176.342 408.685 177.43C408.843 178.503 408.945 179.564 408.992 180.611C409.055 181.658 409.086 182.671 409.086 183.651C409.086 184.631 409.086 185.523 409.086 186.329Z" fill="#006980"/>
<path d="M435.484 186.208C435.484 188.047 435.107 189.638 434.353 190.98C433.614 192.309 432.593 193.409 431.289 194.282C430 195.141 428.484 195.779 426.74 196.195C425.011 196.597 423.149 196.799 421.154 196.799C420.384 196.799 419.535 196.711 418.608 196.537C417.697 196.362 416.77 196.148 415.827 195.893C414.884 195.624 413.973 195.342 413.093 195.047C412.229 194.738 411.459 194.45 410.783 194.181L411.82 186.289C413.156 186.973 414.633 187.497 416.251 187.859C417.885 188.208 419.488 188.383 421.059 188.383C421.358 188.383 421.719 188.376 422.144 188.362C422.568 188.336 422.969 188.275 423.346 188.181C423.739 188.074 424.069 187.919 424.336 187.718C424.603 187.517 424.736 187.228 424.736 186.852C424.736 186.597 424.642 186.383 424.454 186.208C424.265 186.02 424.021 185.872 423.723 185.765C423.424 185.644 423.086 185.557 422.709 185.503C422.332 185.436 421.963 185.389 421.602 185.362C421.24 185.336 420.902 185.322 420.588 185.322C420.274 185.322 420.022 185.322 419.834 185.322C418.483 185.322 417.249 185.141 416.133 184.779C415.034 184.416 414.083 183.906 413.282 183.248C412.496 182.577 411.883 181.772 411.443 180.832C411.003 179.879 410.783 178.826 410.783 177.671C410.783 176.087 411.152 174.671 411.891 173.423C412.645 172.161 413.643 171.094 414.884 170.221C416.141 169.336 417.579 168.658 419.197 168.188C420.816 167.718 422.489 167.483 424.218 167.483C424.988 167.483 425.781 167.51 426.598 167.564C427.415 167.604 428.225 167.685 429.026 167.805C429.843 167.926 430.637 168.081 431.407 168.268C432.176 168.456 432.907 168.691 433.599 168.973L432.703 177.148C431.634 176.839 430.511 176.584 429.332 176.383C428.17 176.168 427.03 176.06 425.915 176.06C425.711 176.06 425.443 176.067 425.113 176.081C424.799 176.081 424.461 176.101 424.1 176.141C423.754 176.168 423.401 176.215 423.039 176.282C422.678 176.349 422.356 176.443 422.073 176.564C421.79 176.671 421.562 176.819 421.389 177.007C421.217 177.195 421.138 177.416 421.154 177.671C421.169 177.966 421.295 178.195 421.531 178.356C421.782 178.517 422.097 178.638 422.474 178.718C422.867 178.785 423.291 178.819 423.746 178.819C424.218 178.819 424.681 178.812 425.137 178.799C425.593 178.772 426.017 178.752 426.41 178.738C426.803 178.711 427.125 178.705 427.376 178.718C428.633 178.785 429.765 179.013 430.77 179.403C431.776 179.792 432.624 180.309 433.316 180.953C434.023 181.597 434.557 182.369 434.918 183.268C435.296 184.154 435.484 185.134 435.484 186.208Z" fill="#006980"/>
<path d="M465.111 168.168C464.404 172.893 463.799 177.597 463.296 182.282C462.793 186.953 462.314 191.658 461.858 196.396L452.195 197L452.619 193.899C452.305 194.208 451.936 194.477 451.511 194.705C451.103 194.933 450.663 195.121 450.191 195.268C449.72 195.403 449.233 195.503 448.73 195.57C448.227 195.624 447.748 195.644 447.292 195.631C446.224 195.617 445.218 195.443 444.276 195.107C443.333 194.758 442.469 194.302 441.683 193.738C440.897 193.161 440.19 192.497 439.562 191.745C438.933 190.98 438.399 190.181 437.959 189.349C437.535 188.503 437.205 187.644 436.969 186.772C436.749 185.899 436.639 185.054 436.639 184.235C436.639 183.027 436.663 181.779 436.71 180.49C436.773 179.188 436.875 177.886 437.016 176.584C437.158 175.282 437.338 173.993 437.558 172.718C437.794 171.443 438.085 170.221 438.43 169.054C440.347 169.134 442.272 169.208 444.205 169.275C446.138 169.342 448.062 169.362 449.979 169.336C449.618 170.503 449.257 171.678 448.895 172.859C448.549 174.027 448.235 175.208 447.952 176.403C447.67 177.584 447.442 178.772 447.269 179.966C447.096 181.161 447.01 182.369 447.01 183.591C447.01 183.872 447.025 184.275 447.057 184.799C447.088 185.322 447.167 185.839 447.292 186.349C447.434 186.859 447.638 187.309 447.905 187.698C448.188 188.074 448.581 188.262 449.084 188.262C449.681 188.262 450.215 188.047 450.686 187.617C451.158 187.174 451.574 186.584 451.936 185.846C452.297 185.107 452.603 184.255 452.855 183.289C453.122 182.322 453.342 181.315 453.515 180.268C453.703 179.208 453.853 178.141 453.963 177.067C454.073 175.993 454.151 174.987 454.198 174.047C454.261 173.094 454.3 172.242 454.316 171.49C454.348 170.738 454.363 170.154 454.363 169.738C454.363 169.47 454.355 169.208 454.34 168.953C454.324 168.698 454.3 168.436 454.269 168.168C455.29 168.195 456.304 168.215 457.309 168.228C458.315 168.242 459.329 168.248 460.35 168.248C461.136 168.248 461.921 168.248 462.707 168.248C463.508 168.235 464.31 168.208 465.111 168.168Z" fill="#006980"/>
<path d="M487.196 185.846L486.206 194.785L466.36 196.114L467.114 167.362H479.371L477.626 185.846H487.196Z" fill="#006980"/>
<path d="M509.493 168.128L509.257 176.664L502.233 176.906L501.385 195.591L491.438 196.034L490.543 177.349L483.519 177.671L483.802 168.168L509.493 168.128Z" fill="#006980"/>
<path d="M539.497 181.094C539.497 182.315 539.332 183.497 539.002 184.638C538.672 185.765 538.192 186.826 537.564 187.819C536.951 188.812 536.197 189.725 535.301 190.557C534.421 191.376 533.424 192.081 532.308 192.671C531.208 193.262 530.006 193.725 528.702 194.06C527.398 194.383 526.015 194.544 524.553 194.544C523.139 194.544 521.788 194.389 520.5 194.081C519.227 193.772 518.033 193.342 516.917 192.792C515.801 192.228 514.788 191.557 513.876 190.779C512.981 189.987 512.211 189.114 511.567 188.161C510.938 187.195 510.443 186.161 510.082 185.06C509.736 183.96 509.563 182.812 509.563 181.617C509.563 180.45 509.728 179.309 510.058 178.195C510.388 177.067 510.86 176.007 511.472 175.013C512.101 174.02 512.855 173.107 513.735 172.275C514.615 171.443 515.597 170.725 516.681 170.121C517.781 169.517 518.967 169.047 520.24 168.711C521.513 168.376 522.856 168.208 524.271 168.208C526.549 168.208 528.623 168.51 530.493 169.114C532.379 169.718 533.981 170.584 535.301 171.711C536.637 172.826 537.666 174.181 538.389 175.779C539.127 177.362 539.497 179.134 539.497 181.094ZM529.032 181.617C529.032 181.04 528.93 180.483 528.725 179.946C528.537 179.396 528.254 178.913 527.877 178.497C527.5 178.067 527.028 177.725 526.463 177.47C525.913 177.201 525.276 177.067 524.553 177.067C523.815 177.067 523.155 177.181 522.574 177.409C521.992 177.638 521.489 177.953 521.065 178.356C520.657 178.745 520.342 179.208 520.122 179.745C519.902 180.268 519.792 180.826 519.792 181.416C519.792 181.98 519.887 182.544 520.075 183.107C520.264 183.671 520.547 184.181 520.924 184.638C521.301 185.094 521.764 185.463 522.314 185.745C522.88 186.027 523.532 186.168 524.271 186.168C525.009 186.168 525.669 186.047 526.25 185.805C526.848 185.55 527.35 185.215 527.759 184.799C528.167 184.369 528.482 183.879 528.702 183.329C528.922 182.779 529.032 182.208 529.032 181.617Z" fill="#006980"/>
<path d="M568.77 177.107C568.77 178.154 568.66 179.107 568.44 179.966C568.236 180.812 567.906 181.591 567.45 182.302C566.994 183.013 566.405 183.671 565.682 184.275C564.96 184.879 564.088 185.456 563.066 186.007L568.676 194.544L558.069 196.315L554.44 187.738L551.517 187.819L551.093 196.195H540.958C541.036 193.134 541.107 190.087 541.17 187.054C541.249 184.02 541.335 180.973 541.429 177.913C541.461 176.369 541.492 174.839 541.524 173.322C541.555 171.805 541.618 170.275 541.712 168.732C542.812 168.383 543.896 168.094 544.965 167.866C546.033 167.638 547.102 167.463 548.17 167.342C549.254 167.208 550.346 167.121 551.446 167.081C552.562 167.027 553.701 167 554.864 167C556.655 167 558.384 167.215 560.049 167.644C561.731 168.06 563.215 168.691 564.504 169.537C565.792 170.383 566.822 171.436 567.592 172.698C568.377 173.96 568.77 175.43 568.77 177.107ZM558.211 177.752C558.211 177.188 558.117 176.671 557.928 176.201C557.755 175.732 557.488 175.329 557.127 174.993C556.781 174.644 556.341 174.376 555.807 174.188C555.288 173.987 554.675 173.886 553.968 173.886C553.654 173.886 553.348 173.906 553.049 173.946C552.751 173.973 552.46 174.02 552.177 174.087L551.8 181.577H552.366C553.041 181.577 553.725 181.503 554.416 181.356C555.123 181.208 555.752 180.98 556.302 180.671C556.867 180.362 557.323 179.966 557.669 179.483C558.03 179 558.211 178.423 558.211 177.752Z" fill="#006980"/>
<path d="M582.723 168.168L581.073 195.591L571.127 196.034L570.184 168.732L582.723 168.168Z" fill="#006980"/>
<path d="M614 194.785L602.31 196.074L600.895 191.523H595.521L594.343 196.074L582.323 195.067L591.703 168.248L604.808 167.685L614 194.785ZM600.047 185.362L598.256 178.356L596.511 185.362H600.047Z" fill="#006980"/>
<path d="M348.23 168.208L346.91 176.705C346.454 176.597 345.998 176.523 345.543 176.483C345.087 176.443 344.631 176.423 344.176 176.423C343.013 176.423 341.905 176.557 340.852 176.826C339.799 177.081 338.865 177.477 338.047 178.013C337.246 178.55 336.602 179.221 336.115 180.027C335.643 180.832 335.408 181.779 335.408 182.866C335.408 183.564 335.533 184.168 335.785 184.678C336.052 185.188 336.421 185.611 336.893 185.946C337.364 186.282 337.922 186.53 338.566 186.691C339.21 186.852 339.917 186.933 340.687 186.933C341.269 186.933 341.874 186.879 342.502 186.772C343.131 186.664 343.751 186.523 344.364 186.349C344.977 186.174 345.574 185.973 346.155 185.745C346.737 185.517 347.271 185.282 347.758 185.04L346.815 194.503C346.203 194.772 345.535 195.013 344.812 195.228C344.105 195.43 343.374 195.611 342.62 195.772C341.866 195.919 341.112 196.034 340.357 196.114C339.603 196.195 338.88 196.235 338.189 196.235C336.193 196.235 334.331 195.919 332.603 195.289C330.874 194.658 329.374 193.792 328.101 192.691C326.828 191.591 325.823 190.295 325.084 188.805C324.361 187.302 324 185.685 324 183.953C324 181.658 324.385 179.497 325.155 177.47C325.925 175.43 327.056 173.644 328.549 172.114C330.042 170.584 331.888 169.376 334.088 168.49C336.303 167.604 338.849 167.161 341.724 167.161C342.809 167.161 343.916 167.235 345.048 167.383C346.195 167.53 347.255 167.805 348.23 168.208Z" stroke="white" stroke-width="2" mask="url(#path-1-outside-1)"/>
<path d="M378.469 181.094C378.469 182.315 378.304 183.497 377.974 184.638C377.644 185.765 377.165 186.826 376.537 187.819C375.924 188.812 375.17 189.725 374.274 190.557C373.394 191.376 372.396 192.081 371.281 192.671C370.181 193.262 368.979 193.725 367.674 194.06C366.37 194.383 364.987 194.544 363.526 194.544C362.112 194.544 360.761 194.389 359.472 194.081C358.199 193.772 357.005 193.342 355.89 192.792C354.774 192.228 353.761 191.557 352.849 190.779C351.954 189.987 351.184 189.114 350.539 188.161C349.911 187.195 349.416 186.161 349.054 185.06C348.709 183.96 348.536 182.812 348.536 181.617C348.536 180.45 348.701 179.309 349.031 178.195C349.361 177.067 349.832 176.007 350.445 175.013C351.074 174.02 351.828 173.107 352.708 172.275C353.588 171.443 354.57 170.725 355.654 170.121C356.754 169.517 357.94 169.047 359.213 168.711C360.486 168.376 361.829 168.208 363.243 168.208C365.522 168.208 367.596 168.51 369.466 169.114C371.351 169.718 372.954 170.584 374.274 171.711C375.61 172.826 376.639 174.181 377.362 175.779C378.1 177.362 378.469 179.134 378.469 181.094ZM368.004 181.617C368.004 181.04 367.902 180.483 367.698 179.946C367.509 179.396 367.227 178.913 366.849 178.497C366.472 178.067 366.001 177.725 365.435 177.47C364.885 177.201 364.249 177.067 363.526 177.067C362.788 177.067 362.128 177.181 361.546 177.409C360.965 177.638 360.462 177.953 360.038 178.356C359.629 178.745 359.315 179.208 359.095 179.745C358.875 180.268 358.765 180.826 358.765 181.416C358.765 181.98 358.859 182.544 359.048 183.107C359.237 183.671 359.519 184.181 359.896 184.638C360.274 185.094 360.737 185.463 361.287 185.745C361.853 186.027 362.505 186.168 363.243 186.168C363.982 186.168 364.642 186.047 365.223 185.805C365.82 185.55 366.323 185.215 366.732 184.799C367.14 184.369 367.454 183.879 367.674 183.329C367.894 182.779 368.004 182.208 368.004 181.617Z" stroke="white" stroke-width="2" mask="url(#path-1-outside-1)"/>
<path d="M409.086 186.329C409.086 187.846 409.063 189.349 409.015 190.839C408.984 192.315 408.929 193.805 408.85 195.309L395.274 195.107C395.746 192.732 396.154 190.362 396.5 188C396.846 185.624 397.019 183.228 397.019 180.812C397.019 180.638 397.011 180.356 396.995 179.966C396.979 179.577 396.948 179.141 396.901 178.658C396.854 178.161 396.783 177.658 396.689 177.148C396.61 176.624 396.492 176.148 396.335 175.718C396.194 175.289 396.013 174.94 395.793 174.671C395.589 174.389 395.337 174.248 395.039 174.248C394.504 174.248 394.049 174.383 393.672 174.651C393.31 174.919 393.004 175.268 392.752 175.698C392.517 176.114 392.328 176.584 392.187 177.107C392.045 177.631 391.935 178.154 391.857 178.678C391.794 179.201 391.747 179.698 391.715 180.168C391.7 180.624 391.692 181 391.692 181.295C391.613 183.671 391.55 186.034 391.503 188.383C391.456 190.718 391.393 193.081 391.315 195.47L379.294 195.913C379.608 191.174 379.907 186.463 380.19 181.779C380.488 177.094 380.724 172.383 380.897 167.644L392.022 167.161L391.928 170.383C392.367 169.926 392.839 169.497 393.342 169.094C393.86 168.691 394.41 168.349 394.992 168.067C395.573 167.772 396.186 167.544 396.83 167.383C397.49 167.208 398.181 167.121 398.904 167.121C400.24 167.121 401.41 167.309 402.416 167.685C403.422 168.06 404.286 168.57 405.009 169.215C405.731 169.859 406.336 170.624 406.823 171.51C407.311 172.383 407.703 173.315 408.002 174.309C408.3 175.302 408.528 176.342 408.685 177.43C408.843 178.503 408.945 179.564 408.992 180.611C409.055 181.658 409.086 182.671 409.086 183.651C409.086 184.631 409.086 185.523 409.086 186.329Z" stroke="white" stroke-width="2" mask="url(#path-1-outside-1)"/>
<path d="M435.484 186.208C435.484 188.047 435.107 189.638 434.353 190.98C433.614 192.309 432.593 193.409 431.289 194.282C430 195.141 428.484 195.779 426.74 196.195C425.011 196.597 423.149 196.799 421.154 196.799C420.384 196.799 419.535 196.711 418.608 196.537C417.697 196.362 416.77 196.148 415.827 195.893C414.884 195.624 413.973 195.342 413.093 195.047C412.229 194.738 411.459 194.45 410.783 194.181L411.82 186.289C413.156 186.973 414.633 187.497 416.251 187.859C417.885 188.208 419.488 188.383 421.059 188.383C421.358 188.383 421.719 188.376 422.144 188.362C422.568 188.336 422.969 188.275 423.346 188.181C423.739 188.074 424.069 187.919 424.336 187.718C424.603 187.517 424.736 187.228 424.736 186.852C424.736 186.597 424.642 186.383 424.454 186.208C424.265 186.02 424.021 185.872 423.723 185.765C423.424 185.644 423.086 185.557 422.709 185.503C422.332 185.436 421.963 185.389 421.602 185.362C421.24 185.336 420.902 185.322 420.588 185.322C420.274 185.322 420.022 185.322 419.834 185.322C418.483 185.322 417.249 185.141 416.133 184.779C415.034 184.416 414.083 183.906 413.282 183.248C412.496 182.577 411.883 181.772 411.443 180.832C411.003 179.879 410.783 178.826 410.783 177.671C410.783 176.087 411.152 174.671 411.891 173.423C412.645 172.161 413.643 171.094 414.884 170.221C416.141 169.336 417.579 168.658 419.197 168.188C420.816 167.718 422.489 167.483 424.218 167.483C424.988 167.483 425.781 167.51 426.598 167.564C427.415 167.604 428.225 167.685 429.026 167.805C429.843 167.926 430.637 168.081 431.407 168.268C432.176 168.456 432.907 168.691 433.599 168.973L432.703 177.148C431.634 176.839 430.511 176.584 429.332 176.383C428.17 176.168 427.03 176.06 425.915 176.06C425.711 176.06 425.443 176.067 425.113 176.081C424.799 176.081 424.461 176.101 424.1 176.141C423.754 176.168 423.401 176.215 423.039 176.282C422.678 176.349 422.356 176.443 422.073 176.564C421.79 176.671 421.562 176.819 421.389 177.007C421.217 177.195 421.138 177.416 421.154 177.671C421.169 177.966 421.295 178.195 421.531 178.356C421.782 178.517 422.097 178.638 422.474 178.718C422.867 178.785 423.291 178.819 423.746 178.819C424.218 178.819 424.681 178.812 425.137 178.799C425.593 178.772 426.017 178.752 426.41 178.738C426.803 178.711 427.125 178.705 427.376 178.718C428.633 178.785 429.765 179.013 430.77 179.403C431.776 179.792 432.624 180.309 433.316 180.953C434.023 181.597 434.557 182.369 434.918 183.268C435.296 184.154 435.484 185.134 435.484 186.208Z" stroke="white" stroke-width="2" mask="url(#path-1-outside-1)"/>
<path d="M465.111 168.168C464.404 172.893 463.799 177.597 463.296 182.282C462.793 186.953 462.314 191.658 461.858 196.396L452.195 197L452.619 193.899C452.305 194.208 451.936 194.477 451.511 194.705C451.103 194.933 450.663 195.121 450.191 195.268C449.72 195.403 449.233 195.503 448.73 195.57C448.227 195.624 447.748 195.644 447.292 195.631C446.224 195.617 445.218 195.443 444.276 195.107C443.333 194.758 442.469 194.302 441.683 193.738C440.897 193.161 440.19 192.497 439.562 191.745C438.933 190.98 438.399 190.181 437.959 189.349C437.535 188.503 437.205 187.644 436.969 186.772C436.749 185.899 436.639 185.054 436.639 184.235C436.639 183.027 436.663 181.779 436.71 180.49C436.773 179.188 436.875 177.886 437.016 176.584C437.158 175.282 437.338 173.993 437.558 172.718C437.794 171.443 438.085 170.221 438.43 169.054C440.347 169.134 442.272 169.208 444.205 169.275C446.138 169.342 448.062 169.362 449.979 169.336C449.618 170.503 449.257 171.678 448.895 172.859C448.549 174.027 448.235 175.208 447.952 176.403C447.67 177.584 447.442 178.772 447.269 179.966C447.096 181.161 447.01 182.369 447.01 183.591C447.01 183.872 447.025 184.275 447.057 184.799C447.088 185.322 447.167 185.839 447.292 186.349C447.434 186.859 447.638 187.309 447.905 187.698C448.188 188.074 448.581 188.262 449.084 188.262C449.681 188.262 450.215 188.047 450.686 187.617C451.158 187.174 451.574 186.584 451.936 185.846C452.297 185.107 452.603 184.255 452.855 183.289C453.122 182.322 453.342 181.315 453.515 180.268C453.703 179.208 453.853 178.141 453.963 177.067C454.073 175.993 454.151 174.987 454.198 174.047C454.261 173.094 454.3 172.242 454.316 171.49C454.348 170.738 454.363 170.154 454.363 169.738C454.363 169.47 454.355 169.208 454.34 168.953C454.324 168.698 454.3 168.436 454.269 168.168C455.29 168.195 456.304 168.215 457.309 168.228C458.315 168.242 459.329 168.248 460.35 168.248C461.136 168.248 461.921 168.248 462.707 168.248C463.508 168.235 464.31 168.208 465.111 168.168Z" stroke="white" stroke-width="2" mask="url(#path-1-outside-1)"/>
<path d="M487.196 185.846L486.206 194.785L466.36 196.114L467.114 167.362H479.371L477.626 185.846H487.196Z" stroke="white" stroke-width="2" mask="url(#path-1-outside-1)"/>
<path d="M509.493 168.128L509.257 176.664L502.233 176.906L501.385 195.591L491.438 196.034L490.543 177.349L483.519 177.671L483.802 168.168L509.493 168.128Z" stroke="white" stroke-width="2" mask="url(#path-1-outside-1)"/>
<path d="M539.497 181.094C539.497 182.315 539.332 183.497 539.002 184.638C538.672 185.765 538.192 186.826 537.564 187.819C536.951 188.812 536.197 189.725 535.301 190.557C534.421 191.376 533.424 192.081 532.308 192.671C531.208 193.262 530.006 193.725 528.702 194.06C527.398 194.383 526.015 194.544 524.553 194.544C523.139 194.544 521.788 194.389 520.5 194.081C519.227 193.772 518.033 193.342 516.917 192.792C515.801 192.228 514.788 191.557 513.876 190.779C512.981 189.987 512.211 189.114 511.567 188.161C510.938 187.195 510.443 186.161 510.082 185.06C509.736 183.96 509.563 182.812 509.563 181.617C509.563 180.45 509.728 179.309 510.058 178.195C510.388 177.067 510.86 176.007 511.472 175.013C512.101 174.02 512.855 173.107 513.735 172.275C514.615 171.443 515.597 170.725 516.681 170.121C517.781 169.517 518.967 169.047 520.24 168.711C521.513 168.376 522.856 168.208 524.271 168.208C526.549 168.208 528.623 168.51 530.493 169.114C532.379 169.718 533.981 170.584 535.301 171.711C536.637 172.826 537.666 174.181 538.389 175.779C539.127 177.362 539.497 179.134 539.497 181.094ZM529.032 181.617C529.032 181.04 528.93 180.483 528.725 179.946C528.537 179.396 528.254 178.913 527.877 178.497C527.5 178.067 527.028 177.725 526.463 177.47C525.913 177.201 525.276 177.067 524.553 177.067C523.815 177.067 523.155 177.181 522.574 177.409C521.992 177.638 521.489 177.953 521.065 178.356C520.657 178.745 520.342 179.208 520.122 179.745C519.902 180.268 519.792 180.826 519.792 181.416C519.792 181.98 519.887 182.544 520.075 183.107C520.264 183.671 520.547 184.181 520.924 184.638C521.301 185.094 521.764 185.463 522.314 185.745C522.88 186.027 523.532 186.168 524.271 186.168C525.009 186.168 525.669 186.047 526.25 185.805C526.848 185.55 527.35 185.215 527.759 184.799C528.167 184.369 528.482 183.879 528.702 183.329C528.922 182.779 529.032 182.208 529.032 181.617Z" stroke="white" stroke-width="2" mask="url(#path-1-outside-1)"/>
<path d="M568.77 177.107C568.77 178.154 568.66 179.107 568.44 179.966C568.236 180.812 567.906 181.591 567.45 182.302C566.994 183.013 566.405 183.671 565.682 184.275C564.96 184.879 564.088 185.456 563.066 186.007L568.676 194.544L558.069 196.315L554.44 187.738L551.517 187.819L551.093 196.195H540.958C541.036 193.134 541.107 190.087 541.17 187.054C541.249 184.02 541.335 180.973 541.429 177.913C541.461 176.369 541.492 174.839 541.524 173.322C541.555 171.805 541.618 170.275 541.712 168.732C542.812 168.383 543.896 168.094 544.965 167.866C546.033 167.638 547.102 167.463 548.17 167.342C549.254 167.208 550.346 167.121 551.446 167.081C552.562 167.027 553.701 167 554.864 167C556.655 167 558.384 167.215 560.049 167.644C561.731 168.06 563.215 168.691 564.504 169.537C565.792 170.383 566.822 171.436 567.592 172.698C568.377 173.96 568.77 175.43 568.77 177.107ZM558.211 177.752C558.211 177.188 558.117 176.671 557.928 176.201C557.755 175.732 557.488 175.329 557.127 174.993C556.781 174.644 556.341 174.376 555.807 174.188C555.288 173.987 554.675 173.886 553.968 173.886C553.654 173.886 553.348 173.906 553.049 173.946C552.751 173.973 552.46 174.02 552.177 174.087L551.8 181.577H552.366C553.041 181.577 553.725 181.503 554.416 181.356C555.123 181.208 555.752 180.98 556.302 180.671C556.867 180.362 557.323 179.966 557.669 179.483C558.03 179 558.211 178.423 558.211 177.752Z" stroke="white" stroke-width="2" mask="url(#path-1-outside-1)"/>
<path d="M582.723 168.168L581.073 195.591L571.127 196.034L570.184 168.732L582.723 168.168Z" stroke="white" stroke-width="2" mask="url(#path-1-outside-1)"/>
<path d="M614 194.785L602.31 196.074L600.895 191.523H595.521L594.343 196.074L582.323 195.067L591.703 168.248L604.808 167.685L614 194.785ZM600.047 185.362L598.256 178.356L596.511 185.362H600.047Z" stroke="white" stroke-width="2" mask="url(#path-1-outside-1)"/>
</g>
<g filter="url(#filter1_d)">
<mask id="path-2-outside-2" maskUnits="userSpaceOnUse" x="260" y="70" width="435" height="81" fill="black">
<rect fill="white" x="260" y="70" width="435" height="81"/>
<path d="M322.934 73.4688L305.936 148.175L282.9 149.678L262 74.2201L284.014 71.8587L292.932 115.867L301.57 71.8587L322.934 73.4688Z"/>
<path d="M348.711 73.1467L345.46 146.243L325.86 147.424L324.003 74.6495L348.711 73.1467Z"/>
<path d="M405.14 106.099C405.14 111.108 404.583 115.599 403.468 119.57C402.354 123.541 400.79 127.066 398.777 130.143C396.796 133.184 394.427 135.778 391.672 137.925C388.916 140.071 385.897 141.842 382.615 143.238C379.333 144.597 375.834 145.599 372.119 146.243C368.434 146.887 364.641 147.209 360.74 147.209C359.285 147.209 357.86 147.173 356.467 147.102C355.074 146.995 353.649 146.851 352.194 146.673L353.495 76.7962C356.901 75.5439 360.399 74.6673 363.991 74.1664C367.614 73.6298 371.205 73.3614 374.766 73.3614C379.194 73.3614 383.265 74.077 386.981 75.5082C390.696 76.9393 393.901 79.0503 396.595 81.841C399.288 84.596 401.378 88.0129 402.865 92.0917C404.382 96.1347 405.14 100.804 405.14 106.099ZM373.558 126.708C375.416 126.386 377.104 125.742 378.621 124.776C380.169 123.774 381.5 122.558 382.615 121.126C383.73 119.659 384.581 118.014 385.169 116.189C385.789 114.328 386.098 112.361 386.098 110.285C386.098 108.246 385.912 106.35 385.541 104.596C385.169 102.808 384.566 101.269 383.73 99.981C382.894 98.6572 381.794 97.6196 380.432 96.8682C379.07 96.0811 377.398 95.6517 375.416 95.5802L373.558 126.708Z"/>
<path d="M464.217 144.096L441.181 147.531L438.394 135.402H427.805L425.483 147.531L401.796 144.848L420.281 73.3614L446.104 71.8587L464.217 144.096ZM436.722 118.98L433.192 100.303L429.756 118.98H436.722Z"/>
<path d="M505.924 120.268L503.973 144.096L464.867 147.639L466.353 71H490.504L487.067 120.268H505.924Z"/>
<path d="M579.305 106.099C579.305 111.108 578.748 115.634 577.633 119.677C576.519 123.685 574.955 127.262 572.942 130.411C570.961 133.524 568.592 136.207 565.836 138.461C563.081 140.715 560.062 142.576 556.78 144.043C553.498 145.474 549.999 146.547 546.284 147.263C542.599 147.943 538.806 148.283 534.905 148.283C533.45 148.283 532.025 148.247 530.632 148.175C529.239 148.068 527.814 147.925 526.359 147.746L527.659 75.7228C531.065 74.4706 534.564 73.594 538.156 73.0931C541.778 72.5564 545.37 72.288 548.931 72.288C553.358 72.288 557.43 73.0573 561.146 74.5958C564.861 76.1343 568.066 78.3526 570.759 81.2507C573.453 84.1488 575.543 87.6909 577.029 91.877C578.547 96.0632 579.305 100.804 579.305 106.099ZM560.263 109.534C560.294 107.602 560.108 105.741 559.706 103.952C559.334 102.163 558.7 100.589 557.802 99.2296C556.935 97.8342 555.82 96.7251 554.458 95.9022C553.095 95.0435 551.47 94.5784 549.581 94.5068L547.723 127.781C549.581 127.459 551.268 126.762 552.786 125.688C554.303 124.579 555.603 123.237 556.687 121.663C557.802 120.053 558.653 118.282 559.241 116.35C559.861 114.382 560.201 112.361 560.263 110.285V109.534Z"/>
<path d="M633.97 105.348C633.97 108.461 633.784 111.573 633.412 114.686C628.118 115.08 622.854 115.724 617.621 116.618C612.389 117.477 607.156 118.336 601.923 119.194C602.728 121.77 603.982 123.828 605.685 125.366C607.419 126.905 609.478 127.674 611.862 127.674C613.101 127.674 614.448 127.406 615.903 126.869C617.389 126.332 618.86 125.67 620.315 124.883C621.77 124.06 623.164 123.184 624.495 122.253C625.827 121.323 626.972 120.482 627.932 119.731L625.703 144.096C624.495 145.17 623.179 146.082 621.755 146.834C620.362 147.585 618.906 148.193 617.389 148.658C615.872 149.123 614.339 149.463 612.791 149.678C611.243 149.893 609.726 150 608.24 150C605.174 150 602.372 149.517 599.833 148.551C597.294 147.585 594.988 146.243 592.913 144.526C590.87 142.773 589.074 140.715 587.526 138.354C585.978 135.993 584.693 133.416 583.671 130.626C582.649 127.835 581.875 124.883 581.349 121.77C580.822 118.658 580.559 115.509 580.559 112.325C580.559 108.997 580.822 105.67 581.349 102.342C581.875 99.0149 582.665 95.8127 583.717 92.7357C584.801 89.6587 586.148 86.8143 587.758 84.2024C589.399 81.5548 591.303 79.2471 593.471 77.2792C595.638 75.3114 598.084 73.7729 600.809 72.6637C603.564 71.5546 606.599 71 609.912 71C612.667 71 615.175 71.4472 617.436 72.3417C619.727 73.2004 621.755 74.4169 623.52 75.9912C625.316 77.5297 626.864 79.3723 628.164 81.519C629.496 83.6658 630.579 86.0272 631.415 88.6033C632.282 91.1436 632.917 93.8449 633.32 96.7072C633.753 99.5337 633.97 102.414 633.97 105.348ZM615.392 102.557C615.392 101.555 615.299 100.536 615.113 99.498C614.928 98.4246 614.618 97.4586 614.185 96.5999C613.782 95.7412 613.24 95.0435 612.559 94.5068C611.878 93.9343 611.026 93.6481 610.005 93.6481C608.766 93.6481 607.667 94.0417 606.707 94.8288C605.778 95.5802 604.973 96.5462 604.292 97.7269C603.611 98.8718 603.054 100.124 602.62 101.484C602.187 102.843 601.861 104.096 601.645 105.24L615.392 103.738V102.557Z"/>
<path d="M693 73.4688L676.002 146.029L652.965 147.531L632.066 77.4402L654.08 75.0788L662.997 115.867L671.636 71.8587L693 73.4688Z"/>
</mask>
<path d="M322.934 73.4688L305.936 148.175L282.9 149.678L262 74.2201L284.014 71.8587L292.932 115.867L301.57 71.8587L322.934 73.4688Z" fill="#00A3FF"/>
<path d="M348.711 73.1467L345.46 146.243L325.86 147.424L324.003 74.6495L348.711 73.1467Z" fill="#00A3FF"/>
<path d="M405.14 106.099C405.14 111.108 404.583 115.599 403.468 119.57C402.354 123.541 400.79 127.066 398.777 130.143C396.796 133.184 394.427 135.778 391.672 137.925C388.916 140.071 385.897 141.842 382.615 143.238C379.333 144.597 375.834 145.599 372.119 146.243C368.434 146.887 364.641 147.209 360.74 147.209C359.285 147.209 357.86 147.173 356.467 147.102C355.074 146.995 353.649 146.851 352.194 146.673L353.495 76.7962C356.901 75.5439 360.399 74.6673 363.991 74.1664C367.614 73.6298 371.205 73.3614 374.766 73.3614C379.194 73.3614 383.265 74.077 386.981 75.5082C390.696 76.9393 393.901 79.0503 396.595 81.841C399.288 84.596 401.378 88.0129 402.865 92.0917C404.382 96.1347 405.14 100.804 405.14 106.099ZM373.558 126.708C375.416 126.386 377.104 125.742 378.621 124.776C380.169 123.774 381.5 122.558 382.615 121.126C383.73 119.659 384.581 118.014 385.169 116.189C385.789 114.328 386.098 112.361 386.098 110.285C386.098 108.246 385.912 106.35 385.541 104.596C385.169 102.808 384.566 101.269 383.73 99.981C382.894 98.6572 381.794 97.6196 380.432 96.8682C379.07 96.0811 377.398 95.6517 375.416 95.5802L373.558 126.708Z" fill="#00A3FF"/>
<path d="M464.217 144.096L441.181 147.531L438.394 135.402H427.805L425.483 147.531L401.796 144.848L420.281 73.3614L446.104 71.8587L464.217 144.096ZM436.722 118.98L433.192 100.303L429.756 118.98H436.722Z" fill="#00A3FF"/>
<path d="M505.924 120.268L503.973 144.096L464.867 147.639L466.353 71H490.504L487.067 120.268H505.924Z" fill="#00A3FF"/>
<path d="M579.305 106.099C579.305 111.108 578.748 115.634 577.633 119.677C576.519 123.685 574.955 127.262 572.942 130.411C570.961 133.524 568.592 136.207 565.836 138.461C563.081 140.715 560.062 142.576 556.78 144.043C553.498 145.474 549.999 146.547 546.284 147.263C542.599 147.943 538.806 148.283 534.905 148.283C533.45 148.283 532.025 148.247 530.632 148.175C529.239 148.068 527.814 147.925 526.359 147.746L527.659 75.7228C531.065 74.4706 534.564 73.594 538.156 73.0931C541.778 72.5564 545.37 72.288 548.931 72.288C553.358 72.288 557.43 73.0573 561.146 74.5958C564.861 76.1343 568.066 78.3526 570.759 81.2507C573.453 84.1488 575.543 87.6909 577.029 91.877C578.547 96.0632 579.305 100.804 579.305 106.099ZM560.263 109.534C560.294 107.602 560.108 105.741 559.706 103.952C559.334 102.163 558.7 100.589 557.802 99.2296C556.935 97.8342 555.82 96.7251 554.458 95.9022C553.095 95.0435 551.47 94.5784 549.581 94.5068L547.723 127.781C549.581 127.459 551.268 126.762 552.786 125.688C554.303 124.579 555.603 123.237 556.687 121.663C557.802 120.053 558.653 118.282 559.241 116.35C559.861 114.382 560.201 112.361 560.263 110.285V109.534Z" fill="#00A3FF"/>
<path d="M633.97 105.348C633.97 108.461 633.784 111.573 633.412 114.686C628.118 115.08 622.854 115.724 617.621 116.618C612.389 117.477 607.156 118.336 601.923 119.194C602.728 121.77 603.982 123.828 605.685 125.366C607.419 126.905 609.478 127.674 611.862 127.674C613.101 127.674 614.448 127.406 615.903 126.869C617.389 126.332 618.86 125.67 620.315 124.883C621.77 124.06 623.164 123.184 624.495 122.253C625.827 121.323 626.972 120.482 627.932 119.731L625.703 144.096C624.495 145.17 623.179 146.082 621.755 146.834C620.362 147.585 618.906 148.193 617.389 148.658C615.872 149.123 614.339 149.463 612.791 149.678C611.243 149.893 609.726 150 608.24 150C605.174 150 602.372 149.517 599.833 148.551C597.294 147.585 594.988 146.243 592.913 144.526C590.87 142.773 589.074 140.715 587.526 138.354C585.978 135.993 584.693 133.416 583.671 130.626C582.649 127.835 581.875 124.883 581.349 121.77C580.822 118.658 580.559 115.509 580.559 112.325C580.559 108.997 580.822 105.67 581.349 102.342C581.875 99.0149 582.665 95.8127 583.717 92.7357C584.801 89.6587 586.148 86.8143 587.758 84.2024C589.399 81.5548 591.303 79.2471 593.471 77.2792C595.638 75.3114 598.084 73.7729 600.809 72.6637C603.564 71.5546 606.599 71 609.912 71C612.667 71 615.175 71.4472 617.436 72.3417C619.727 73.2004 621.755 74.4169 623.52 75.9912C625.316 77.5297 626.864 79.3723 628.164 81.519C629.496 83.6658 630.579 86.0272 631.415 88.6033C632.282 91.1436 632.917 93.8449 633.32 96.7072C633.753 99.5337 633.97 102.414 633.97 105.348ZM615.392 102.557C615.392 101.555 615.299 100.536 615.113 99.498C614.928 98.4246 614.618 97.4586 614.185 96.5999C613.782 95.7412 613.24 95.0435 612.559 94.5068C611.878 93.9343 611.026 93.6481 610.005 93.6481C608.766 93.6481 607.667 94.0417 606.707 94.8288C605.778 95.5802 604.973 96.5462 604.292 97.7269C603.611 98.8718 603.054 100.124 602.62 101.484C602.187 102.843 601.861 104.096 601.645 105.24L615.392 103.738V102.557Z" fill="#00A3FF"/>
<path d="M693 73.4688L676.002 146.029L652.965 147.531L632.066 77.4402L654.08 75.0788L662.997 115.867L671.636 71.8587L693 73.4688Z" fill="#00A3FF"/>
<path d="M322.934 73.4688L305.936 148.175L282.9 149.678L262 74.2201L284.014 71.8587L292.932 115.867L301.57 71.8587L322.934 73.4688Z" stroke="white" stroke-width="2" mask="url(#path-2-outside-2)"/>
<path d="M348.711 73.1467L345.46 146.243L325.86 147.424L324.003 74.6495L348.711 73.1467Z" stroke="white" stroke-width="2" mask="url(#path-2-outside-2)"/>
<path d="M405.14 106.099C405.14 111.108 404.583 115.599 403.468 119.57C402.354 123.541 400.79 127.066 398.777 130.143C396.796 133.184 394.427 135.778 391.672 137.925C388.916 140.071 385.897 141.842 382.615 143.238C379.333 144.597 375.834 145.599 372.119 146.243C368.434 146.887 364.641 147.209 360.74 147.209C359.285 147.209 357.86 147.173 356.467 147.102C355.074 146.995 353.649 146.851 352.194 146.673L353.495 76.7962C356.901 75.5439 360.399 74.6673 363.991 74.1664C367.614 73.6298 371.205 73.3614 374.766 73.3614C379.194 73.3614 383.265 74.077 386.981 75.5082C390.696 76.9393 393.901 79.0503 396.595 81.841C399.288 84.596 401.378 88.0129 402.865 92.0917C404.382 96.1347 405.14 100.804 405.14 106.099ZM373.558 126.708C375.416 126.386 377.104 125.742 378.621 124.776C380.169 123.774 381.5 122.558 382.615 121.126C383.73 119.659 384.581 118.014 385.169 116.189C385.789 114.328 386.098 112.361 386.098 110.285C386.098 108.246 385.912 106.35 385.541 104.596C385.169 102.808 384.566 101.269 383.73 99.981C382.894 98.6572 381.794 97.6196 380.432 96.8682C379.07 96.0811 377.398 95.6517 375.416 95.5802L373.558 126.708Z" stroke="white" stroke-width="2" mask="url(#path-2-outside-2)"/>
<path d="M464.217 144.096L441.181 147.531L438.394 135.402H427.805L425.483 147.531L401.796 144.848L420.281 73.3614L446.104 71.8587L464.217 144.096ZM436.722 118.98L433.192 100.303L429.756 118.98H436.722Z" stroke="white" stroke-width="2" mask="url(#path-2-outside-2)"/>
<path d="M505.924 120.268L503.973 144.096L464.867 147.639L466.353 71H490.504L487.067 120.268H505.924Z" stroke="white" stroke-width="2" mask="url(#path-2-outside-2)"/>
<path d="M579.305 106.099C579.305 111.108 578.748 115.634 577.633 119.677C576.519 123.685 574.955 127.262 572.942 130.411C570.961 133.524 568.592 136.207 565.836 138.461C563.081 140.715 560.062 142.576 556.78 144.043C553.498 145.474 549.999 146.547 546.284 147.263C542.599 147.943 538.806 148.283 534.905 148.283C533.45 148.283 532.025 148.247 530.632 148.175C529.239 148.068 527.814 147.925 526.359 147.746L527.659 75.7228C531.065 74.4706 534.564 73.594 538.156 73.0931C541.778 72.5564 545.37 72.288 548.931 72.288C553.358 72.288 557.43 73.0573 561.146 74.5958C564.861 76.1343 568.066 78.3526 570.759 81.2507C573.453 84.1488 575.543 87.6909 577.029 91.877C578.547 96.0632 579.305 100.804 579.305 106.099ZM560.263 109.534C560.294 107.602 560.108 105.741 559.706 103.952C559.334 102.163 558.7 100.589 557.802 99.2296C556.935 97.8342 555.82 96.7251 554.458 95.9022C553.095 95.0435 551.47 94.5784 549.581 94.5068L547.723 127.781C549.581 127.459 551.268 126.762 552.786 125.688C554.303 124.579 555.603 123.237 556.687 121.663C557.802 120.053 558.653 118.282 559.241 116.35C559.861 114.382 560.201 112.361 560.263 110.285V109.534Z" stroke="white" stroke-width="2" mask="url(#path-2-outside-2)"/>
<path d="M633.97 105.348C633.97 108.461 633.784 111.573 633.412 114.686C628.118 115.08 622.854 115.724 617.621 116.618C612.389 117.477 607.156 118.336 601.923 119.194C602.728 121.77 603.982 123.828 605.685 125.366C607.419 126.905 609.478 127.674 611.862 127.674C613.101 127.674 614.448 127.406 615.903 126.869C617.389 126.332 618.86 125.67 620.315 124.883C621.77 124.06 623.164 123.184 624.495 122.253C625.827 121.323 626.972 120.482 627.932 119.731L625.703 144.096C624.495 145.17 623.179 146.082 621.755 146.834C620.362 147.585 618.906 148.193 617.389 148.658C615.872 149.123 614.339 149.463 612.791 149.678C611.243 149.893 609.726 150 608.24 150C605.174 150 602.372 149.517 599.833 148.551C597.294 147.585 594.988 146.243 592.913 144.526C590.87 142.773 589.074 140.715 587.526 138.354C585.978 135.993 584.693 133.416 583.671 130.626C582.649 127.835 581.875 124.883 581.349 121.77C580.822 118.658 580.559 115.509 580.559 112.325C580.559 108.997 580.822 105.67 581.349 102.342C581.875 99.0149 582.665 95.8127 583.717 92.7357C584.801 89.6587 586.148 86.8143 587.758 84.2024C589.399 81.5548 591.303 79.2471 593.471 77.2792C595.638 75.3114 598.084 73.7729 600.809 72.6637C603.564 71.5546 606.599 71 609.912 71C612.667 71 615.175 71.4472 617.436 72.3417C619.727 73.2004 621.755 74.4169 623.52 75.9912C625.316 77.5297 626.864 79.3723 628.164 81.519C629.496 83.6658 630.579 86.0272 631.415 88.6033C632.282 91.1436 632.917 93.8449 633.32 96.7072C633.753 99.5337 633.97 102.414 633.97 105.348ZM615.392 102.557C615.392 101.555 615.299 100.536 615.113 99.498C614.928 98.4246 614.618 97.4586 614.185 96.5999C613.782 95.7412 613.24 95.0435 612.559 94.5068C611.878 93.9343 611.026 93.6481 610.005 93.6481C608.766 93.6481 607.667 94.0417 606.707 94.8288C605.778 95.5802 604.973 96.5462 604.292 97.7269C603.611 98.8718 603.054 100.124 602.62 101.484C602.187 102.843 601.861 104.096 601.645 105.24L615.392 103.738V102.557Z" stroke="white" stroke-width="2" mask="url(#path-2-outside-2)"/>
<path d="M693 73.4688L676.002 146.029L652.965 147.531L632.066 77.4402L654.08 75.0788L662.997 115.867L671.636 71.8587L693 73.4688Z" stroke="white" stroke-width="2" mask="url(#path-2-outside-2)"/>
</g>
<g filter="url(#filter2_di)">
<path d="M254 125C254 194.036 198.036 250 129 250C59.9644 250 4 194.036 4 125C4 55.9644 59.9644 0 129 0C198.036 0 254 55.9644 254 125Z" fill="#006980"/>
<path d="M252.5 125C252.5 193.207 197.207 248.5 129 248.5C60.7928 248.5 5.5 193.207 5.5 125C5.5 56.7928 60.7928 1.5 129 1.5C197.207 1.5 252.5 56.7928 252.5 125Z" stroke="white" stroke-width="3"/>
</g>
<path d="M169 143.996V115H152V143.996V144H169V143.996Z" fill="#F2F3F4"/>
<path d="M196.585 54H128.224H125.895H57.5334C55.0985 54 53 56.234 53 59.1706V160.806V161.159V170.576V171.164C53 174.1 55.0985 176.569 57.5334 176.569H112.287C112.223 178.253 111.787 185.505 108.929 189.013C106.678 191.784 103.55 194.375 104.771 195.707C105.067 196.528 106.471 197 109.663 197C116.706 197 124.332 197 127.124 197C127.83 197 128.227 197 128.227 197C131.017 197 138.646 197 145.686 197C149.322 197 150.592 196.28 150.604 195.211H150.48V194.856H150.352C150.19 193.409 147.764 191.275 145.927 189.022C143.07 185.515 142.637 178.266 142.573 176.582H196.591C199.026 176.582 201 174.114 201 171.173V170.585V161.168V160.815V59.1725C200.997 56.2321 199.02 54 196.585 54ZM126.998 171.421C125.407 171.421 124.12 169.873 124.12 167.953C124.12 166.036 125.407 164.484 126.998 164.484C128.587 164.484 129.875 166.036 129.875 167.953C129.875 169.871 128.585 171.421 126.998 171.421ZM194.756 153.281H145.013H59.2409V61.1697H145.013H194.756V153.281Z" fill="#F2F3F4"/>
<path d="M190 72H152V80H190V72Z" fill="#F2F3F4"/>
<path d="M169 85H152V113H169V85Z" fill="#F2F3F4"/>
<path d="M60 61V153H145V61H60ZM114.48 107.166V109.91H77.8747V107.166H114.48ZM101.243 105.389H77.8747V102.645H101.243V105.389ZM69.8529 70.1991H76.2892V72.9426H69.8529V70.1991ZM69.8529 74.8211H85.8951V77.5647H69.8529V74.8211ZM69.8529 79.4413H91.243V82.1849H69.8529V79.4413ZM69.8529 84.0615H85.8951V86.805H69.8529V84.0615ZM69.8529 88.6835H85.8951V91.4271H69.8529V88.6835ZM69.8529 93.3037H76.2892V96.0473H69.8529V93.3037ZM69.8529 97.9257H80.6135V100.669H69.8529V97.9257ZM69.8529 102.645H76.2892V105.389H69.8529V102.645ZM69.8529 107.166H76.2892V109.91H69.8529V107.166ZM69.8529 111.788H76.2892V114.532H69.8529V111.788ZM69.8529 116.408H121.13V119.152H69.8529V116.408ZM69.8529 121.03H76.2892V123.774H69.8529V121.03ZM68.3106 142.258H66.3591V139.513H68.3106V142.258ZM68.3106 137.636H66.3591V134.893H68.3106V137.636ZM68.3106 133.016H66.3591V130.273H68.3106V133.016ZM68.3106 128.396H66.3591V125.651H68.3106V128.396ZM68.3106 123.774H66.3591V121.03H68.3106V123.774ZM68.3106 119.152H66.3591V116.408H68.3106V119.152ZM68.3106 114.532H66.3591V111.788H68.3106V114.532ZM68.3106 109.91H66.3591V107.166H68.3106V109.91ZM68.3106 105.289H66.3591V102.546H68.3106V105.289ZM68.3106 100.669H66.3591V97.9257H68.3106V100.669ZM68.3106 96.0473H66.3591V93.3037H68.3106V96.0473ZM68.3106 91.4271H66.3591V88.6835H68.3106V91.4271ZM68.3106 86.805H66.3591V84.0615H68.3106V86.805ZM68.3106 82.1849H66.3591V79.4413H68.3106V82.1849ZM68.3106 77.5647H66.3591V74.8211H68.3106V77.5647ZM68.3106 72.9426H66.3591V70.1991H68.3106V72.9426ZM80.6135 142.258H69.8529V139.513H80.6135V142.258ZM83.0142 137.636H69.8529V134.893H83.0142V137.636ZM96.1771 133.016H69.8529V130.273H96.1771V133.016ZM101.241 128.396H69.8529V125.651H101.241V128.396ZM121.132 123.774H77.8747V121.03H121.132V123.774ZM129.097 114.532H77.8747V111.788H129.097V114.532ZM137.075 114.532H130.638V111.788H137.075V114.532Z" fill="white"/>
<path d="M171 143.996V144H190V143.996V115H171V143.996Z" fill="white"/>
<path d="M190 85H171V113H190V85Z" fill="#EEEEEE"/>
<defs>
<filter id="filter0_d" x="272" y="115" width="402.347" height="142.074" filterUnits="userSpaceOnUse" color-interpolation-filters="sRGB">
<feFlood flood-opacity="0" result="BackgroundImageFix"/>
<feColorMatrix in="SourceAlpha" type="matrix" values="0 0 0 0 0 0 0 0 0 0 0 0 0 0 0 0 0 0 127 0"/>
<feOffset dx="4" dy="4"/>
<feGaussianBlur stdDeviation="27.5"/>
<feColorMatrix type="matrix" values="0 0 0 0 0 0 0 0 0 0.411765 0 0 0 0 0.501961 0 0 0 0.55 0"/>
<feBlend mode="normal" in2="BackgroundImageFix" result="effect1_dropShadow"/>
<feBlend mode="normal" in="SourceGraphic" in2="effect1_dropShadow" result="shape"/>
</filter>
<filter id="filter1_d" x="221.722" y="31" width="521.518" height="169" filterUnits="userSpaceOnUse" color-interpolation-filters="sRGB">
<feFlood flood-opacity="0" result="BackgroundImageFix"/>
<feColorMatrix in="SourceAlpha" type="matrix" values="0 0 0 0 0 0 0 0 0 0 0 0 0 0 0 0 0 0 127 0"/>
<feOffset dx="5" dy="5"/>
<feGaussianBlur stdDeviation="22"/>
<feColorMatrix type="matrix" values="0 0 0 0 0 0 0 0 0 0.58 0 0 0 0 1 0 0 0 0.44 0"/>
<feBlend mode="normal" in2="BackgroundImageFix" result="effect1_dropShadow"/>
<feBlend mode="normal" in="SourceGraphic" in2="effect1_dropShadow" result="shape"/>
</filter>
<filter id="filter2_di" x="0" y="0" width="258" height="258" filterUnits="userSpaceOnUse" color-interpolation-filters="sRGB">
<feFlood flood-opacity="0" result="BackgroundImageFix"/>
<feColorMatrix in="SourceAlpha" type="matrix" values="0 0 0 0 0 0 0 0 0 0 0 0 0 0 0 0 0 0 127 0"/>
<feOffset dy="4"/>
<feGaussianBlur stdDeviation="2"/>
<feColorMatrix type="matrix" values="0 0 0 0 0 0 0 0 0 0 0 0 0 0 0 0 0 0 0.25 0"/>
<feBlend mode="normal" in2="BackgroundImageFix" result="effect1_dropShadow"/>
<feBlend mode="normal" in="SourceGraphic" in2="effect1_dropShadow" result="shape"/>
<feColorMatrix in="SourceAlpha" type="matrix" values="0 0 0 0 0 0 0 0 0 0 0 0 0 0 0 0 0 0 127 0" result="hardAlpha"/>
<feOffset dx="4" dy="4"/>
<feGaussianBlur stdDeviation="30"/>
<feComposite in2="hardAlpha" operator="arithmetic" k2="-1" k3="1"/>
<feColorMatrix type="matrix" values="0 0 0 0 1 0 0 0 0 1 0 0 0 0 1 0 0 0 1 0"/>
<feBlend mode="normal" in2="shape" result="effect2_innerShadow"/>
</filter>
</defs>
</svg>
